# AST/ASF file generated using VICON BodyLanguage
# -----------------------------------------------
:version 1.10
:name VICON
:units
  mass 1.0
  length 0.45
  angle deg
:documentation
   .ast/.asf automatically generated from VICON data using
   VICON BodyBuilder and BodyLanguage model FoxedUp or BRILLIANT.MOD
:root
   order TX TY TZ RX RY RZ
   axis XYZ
   position 0 0 0  
   orientation 0 0 0 
:bonedata
  begin
     id 1 
     name lhipjoint
     direction 0.716248 -0.617586 0.324924 
     length 2.63557 
     axis 0 0 0  XYZ
  end
  begin
     id 2 
     name lfemur
     direction 0.34202 -0.939693 0  
     length 7.01235  
     axis 0 0 20  XYZ
    dof rx ry rz
    limits (-160.0 20.0)
           (-70.0 70.0)
           (-60.0 70.0)
  end
  begin
     id 3 
     name ltibia
     direction 0.34202 -0.939693 0   
     length 8.14348   
     axis 0 0 20   XYZ
    dof rx
    limits (-10.0 170.0)
  end
  begin
     id 4 
     name lfoot
     direction 0.0982064 -0.26982 0.95789   
     length 1.99077   
     axis -90 7.62852e-016 20   XYZ
    dof rx rz
    limits (-45.0 90.0)
           (-70.0 20.0)
  end
  begin
     id 5 
     name ltoes
     direction 1.53511e-011 -4.21891e-011 1   
     length 0.99735   
     axis -90 7.62852e-016 20   XYZ
    dof rx
    limits (-90.0 20.0)
  end
  begin
     id 6 
     name rhipjoint
     direction -0.687828 -0.642391 0.337975   
     length 2.5338  
     axis 0 0 0  XYZ 
  end
  begin
     id 7 
     name rfemur
     direction -0.34202 -0.939693 0   
     length 6.90199   
     axis 0 0 -20   XYZ
    dof rx ry rz
    limits (-160.0 20.0)
           (-70.0 70.0)
           (-70.0 60.0)
  end
  begin
     id 8 
     name rtibia
     direction -0.34202 -0.939693 0   
     length 8.07725   
     axis 0 0 -20   XYZ
    dof rx
    limits (-10.0 170.0)
 end
 begin
     id 9 
     name rfoot
     direction -0.0912384 -0.250675 0.963762   
     length 2.11621  
     axis -90 -7.62852e-016 -20   XYZ
    dof rx rz
    limits (-45.0 90.0)
           (-20.0 70.0)
  end
  begin
     id 10 
     name rtoes
     direction -1.5359e-011 -4.21894e-011 1   
     length 1.06031   
     axis -90 -7.62852e-016 -20   XYZ
    dof rx
    limits (-90.0 20.0)
  end
  begin
     id 11 
     name lowerback
     direction -0.0403572 0.987953 -0.149396   
     length 2.05637   
     axis 0 0 0   XYZ
    dof rx ry rz
    limits (-20.0 45.0)
           (-30.0 30.0)
           (-30.0 30.0)
  end
  begin
     id 12 
     name upperback
     direction -0.00512151 0.997598 0.0690792   
     length 2.01086   
     axis 0 0 0   XYZ
    dof rx ry rz
    limits (-20.0 45.0)
           (-30.0 30.0)
           (-30.0 30.0)
  end
  begin
     id 13 
     name thorax
     direction 0.0136133 0.989392 0.14463   
     length 2.09035   
     axis 0 0 0   XYZ
    dof rx ry rz
    limits (-20.0 45.0)
           (-30.0 30.0)
           (-30.0 30.0)
  end
  begin
     id 14 
     name lowerneck
     direction 0.0250714 0.992811 0.11704   
     length 1.70806   
     axis 0 0 0   XYZ
    dof rx ry rz
    limits (-20.0 45.0)
           (-30.0 30.0)
           (-30.0 30.0)
  end
  begin
     id 15 
     name upperneck
     direction -0.0519205 0.998394 -0.0226787   
     length 1.6689   
     axis 0 0 0   XYZ
    dof rx ry rz
    limits (-20.0 45.0)
           (-30.0 30.0)
           (-30.0 30.0)
  end
  begin
     id 16
     name head
     direction -0.0201693 0.999547 -0.0223192  
     length 1.83412  
     axis 0 0 0   XYZ
    dof rx ry rz
    limits (-20.0 45.0)
           (-30.0 30.0)
           (-30.0 30.0)
  end
  begin
     id 17 
     name lclavicle
     direction 0.89585 0.444077 -0.0157448  
     length 3.39587  
     axis 0 0 0   XYZ
    dof ry rz
    limits (-20.0 10.0)
           (0.0 20.0)
  end
  begin
     id 18 
     name lhumerus
     direction 1 -4.48956e-011 1.99132e-028   
     length 5.79199   
     axis 180 -30 -90   XYZ
    dof rx ry rz
    limits (-60.0 90.0)
           (-90.0 90.0)
           (-90.0 90.0)
  end
  begin
     id 19
     name lradius
     direction 1 -4.48974e-011 8.72912e-028   
     length 3.49908   
     axis 180 -30 -90   XYZ
    dof rx
    limits (-10.0 170.0)
  end
  begin
     id 20
     name lwrist
     direction 1 -4.48994e-011 4.76442e-027   
     length 1.74954   
     axis -3.27502e-015 90 90   XYZ
    dof ry
    limits (-180.0 0.0)
 end
  begin
     id 21 
     name lhand
     direction 1 -4.48945e-011 9.531e-027   
     length 0.593861   
     axis -6.08098e-015 90 90   XYZ
    dof rx rz
    limits (-90.0 90.0)
           (-45.0 45.0)
  end
  begin
     id 22 
     name lfingers
     direction 1 -4.48945e-011 1.9062e-026   
     length 0.478786   
     axis -1.21619e-014 90 90   XYZ
    dof rx
    limits (0.0 90.0)
  end
  begin
     id 23
     name lthumb
     direction 0.707107 -6.34904e-011 0.707107   
     length 0.687444   
     axis -90 45 -9.86923e-015   XYZ
    dof rx rz
    limits (-45.0 45.0)
           (-45.0 45.0)
  end
  begin
     id 24 
     name rclavicle
     direction -0.940466 0.338394 0.0318182   
     length 3.51226  
     axis 0 0 0   XYZ 
    dof ry rz
    limits (-10.0 20.0)
           (-20.0 0.0)
  end
  begin
     id 25 
     name rhumerus
     direction -1 -4.48976e-011 2.0905e-027  
     length 5.73799   
     axis 180 30 90   XYZ
    dof rx ry rz
    limits (-90.0 60.0)
           (-90.0 90.0)
           (-90.0 90.0)
  end
  begin
     id 26 
     name rradius
     direction -1 -4.48968e-011 -9.39692e-029   
     length 3.57916   
     axis 180 30 90   XYZ
    dof rx
    limits (-10.0 170.0)
  end
  begin
     id 27 
     name rwrist
     direction -1 -4.48959e-011 4.7652e-027   
     length 1.78958   
     axis -3.27502e-015 -90 -90   XYZ
    dof ry
    limits (-180.0 0.0)
  end
  begin
     id 28
     name rhand
     direction -1 -4.49042e-011 9.5267e-027   
     length 0.615577   
     axis -6.08098e-015 -90 -90   XYZ
    dof rx rz
    limits (-90.0 90.0)
           (-45.0 45.0)
  end
  begin
     id 29
     name rfingers
     direction -1 -4.48935e-011 1.90629e-026   
     length 0.496294   
     axis -1.21619e-014 -90 -90   XYZ
    dof rx
    limits (0.0 90.0)
  end
  begin
     id 30
     name rthumb
     direction -0.707107 -6.34977e-011 0.707107   
     length 0.712582   
     axis -90 -45 9.86923e-015   XYZ
    dof rx rz
    limits (-45.0 45.0)
           (-45.0 45.0)
  end
:hierarchy
  begin
    root lhipjoint rhipjoint lowerback
    lhipjoint lfemur
    lfemur ltibia
    ltibia lfoot
    lfoot ltoes
    rhipjoint rfemur
    rfemur rtibia
    rtibia rfoot
    rfoot rtoes
    lowerback upperback
    upperback thorax
    thorax lowerneck lclavicle rclavicle
    lowerneck upperneck
    upperneck head
    lclavicle lhumerus
    lhumerus lradius
    lradius lwrist
    lwrist lhand lthumb
    lhand lfingers
    rclavicle rhumerus
    rhumerus rradius
    rradius rwrist
    rwrist rhand rthumb
    rhand rfingers
  end

#!OML:ASF H:\Terrain\Patient Classification 1\PaulMetrics\March17Take5\PaulMetrics.ASF
:FULLY-SPECIFIED
:DEGREES
1177
root -7.05171 17.4195 -0.466541 -178.967 139.966 177.86
lowerback 6.53584 0.497483 -3.47819
upperback -5.49089 0.443972 1.46186
thorax -9.55923 0.522078 3.44964
lowerneck -1.39586 7.18925 8.60534
upperneck 15.23 10.8625 -9.63207
head 5.80436 5.30324 -3.77851
rclavicle 6.13049e-014 8.75895e-015
rhumerus -58.7941 37.4908 -100.809
rradius 57.7122
rwrist -9.53192
rhand -16.7518 -32.1731
rfingers 7.12502
rthumb 9.47483 -61.9401
lclavicle 6.13049e-014 8.75895e-015
lhumerus -44.8916 -26.2309 88.4456
lradius 50.1593
lwrist 16.8314
lhand -7.01336 -20.8248
lfingers 7.12502
lthumb 18.858 8.28111
rfemur -20.4038 4.29948 22.5993
rtibia 30.5743
rfoot -12.5525 -7.08609
rtoes 10.3182
lfemur -17.7276 -1.06043 -21.2825
ltibia 65.4998
lfoot -0.379049 1.9674
ltoes -2.33261
1178
root -6.99954 17.4195 -0.363556 -178.964 139.967 177.941
lowerback 6.63608 0.649693 -3.47816
upperback -5.50447 0.643672 1.4371
thorax -9.65154 0.62033 3.39348
lowerneck -1.18181 7.6086 8.97755
upperneck 15.5634 11.5399 -9.99869
head 5.98126 5.63913 -3.90451
rclavicle -4.65265e-014 -5.04416e-015
rhumerus -58.9081 37.717 -100.972
rradius 58.1932
rwrist -10.0003
rhand -18.3921 -32.5642
rfingers 7.12502
rthumb 7.89193 -62.3969
lclavicle -4.65265e-014 -5.04416e-015
lhumerus -45.1527 -26.0577 88.7393
lradius 50.2534
lwrist 17.4632
lhand -7.39166 -21.3399
lfingers 7.12502
lthumb 18.4941 7.80091
rfemur -19.7594 4.41437 22.6851
rtibia 30.3127
rfoot -12.7944 -7.26344
rtoes 9.27071
lfemur -18.8229 -0.774803 -21.4568
ltibia 65.9467
lfoot -1.52339 2.19342
ltoes -3.31191
1179
root -6.94932 17.4176 -0.253504 -178.894 139.862 178.032
lowerback 6.63881 0.81242 -3.54741
upperback -5.49399 0.853915 1.42027
thorax -9.6619 0.726604 3.38284
lowerneck -0.263455 7.37636 9.30068
upperneck 14.6242 11.2808 -10.6585
head 5.55753 5.5363 -4.23113
rclavicle 6.4897e-014 3.57812e-015
rhumerus -58.9657 37.7694 -100.989
rradius 58.698
rwrist -10.6036
rhand -19.3517 -32.8797
rfingers 7.12502
rthumb 6.96564 -62.7451
lclavicle 6.4897e-014 3.57812e-015
lhumerus -45.3246 -25.9527 89.0626
lradius 50.3922
lwrist 18.0267
lhand -7.87803 -21.1127
lfingers 7.12502
lthumb 18.0262 8.07192
rfemur -19.1664 4.51454 22.7689
rtibia 30.1368
rfoot -13.0868 -7.50066
rtoes 8.03309
lfemur -19.9977 -0.539891 -21.6554
ltibia 66.2778
lfoot -2.1946 2.26165
ltoes -3.57252
1180
root -6.89879 17.4305 -0.139556 -179.005 139.809 177.765
lowerback 6.63923 0.925887 -3.38716
upperback -5.53651 1.02529 1.4222
thorax -9.72008 0.801156 3.26841
lowerneck -1.72387 7.57207 8.43154
upperneck 16.4612 11.4269 -9.08624
head 6.26355 5.58374 -3.50848
rclavicle 1.07934e-014 -8.19987e-016
rhumerus -59.0808 37.9531 -101.22
rradius 59.2643
rwrist -11.1387
rhand -19.3233 -32.7374
rfingers 7.12502
rthumb 6.99306 -62.6019
lclavicle 1.07934e-014 -8.19987e-016
lhumerus -45.7765 -25.6963 89.1848
lradius 50.6997
lwrist 18.483
lhand -8.40433 -20.7034
lfingers 7.12502
lthumb 17.5198 8.52721
rfemur -18.7592 4.80391 23.1283
rtibia 30.1114
rfoot -13.5678 -7.73126
rtoes 9.42503
lfemur -21.2372 -0.135819 -21.5066
ltibia 66.4906
lfoot -2.5282 2.30449
ltoes -4.15305
1181
root -6.85554 17.4331 -0.016977 -179.222 140.015 177.414
lowerback 6.60467 1.02347 -3.51419
upperback -5.56349 1.15216 1.51054
thorax -9.74709 0.876614 3.41603
lowerneck -1.17192 7.46994 8.92846
upperneck 16.2859 11.3127 -9.29662
head 6.14221 5.56446 -3.6887
rclavicle -1.34863e-014 -2.5345e-015
rhumerus -59.2676 38.3919 -101.666
rradius 59.8351
rwrist -11.4553
rhand -19.0766 -32.3792
rfingers 7.12502
rthumb 7.2312 -62.2357
lclavicle -1.34863e-014 -2.5345e-015
lhumerus -46.1618 -25.0638 89.0843
lradius 50.7215
lwrist 18.7838
lhand -8.7682 -20.7764
lfingers 7.12502
lthumb 17.1696 8.48499
rfemur -18.3795 5.6751 23.6062
rtibia 30.1367
rfoot -14.1989 -8.24843
rtoes 12.0061
lfemur -22.4675 0.33301 -21.2009
ltibia 66.6134
lfoot -3.2543 2.05813
ltoes -4.57577
1182
root -6.77607 17.4301 0.0630626 -178.822 139.617 177.985
lowerback 6.67639 0.899156 -3.50831
upperback -5.6324 0.965284 1.31185
thorax -9.84386 0.780124 3.22727
lowerneck -0.698457 7.55825 9.12684
upperneck 16.0568 11.4631 -9.4357
head 6.02291 5.65866 -3.77324
rclavicle -1.12021e-013 -1.69961e-014
rhumerus -59.5589 38.9612 -102.083
rradius 60.3857
rwrist -11.6899
rhand -18.624 -32.2428
rfingers 7.12502
rthumb 7.66806 -62.0838
lclavicle -1.12021e-013 -1.69961e-014
lhumerus -46.334 -24.2198 89.0344
lradius 50.4639
lwrist 18.9838
lhand -8.82294 -21.1028
lfingers 7.12502
lthumb 17.1169 8.16318
rfemur -17.891 4.64628 23.1589
rtibia 30.1675
rfoot -14.668 -7.59402
rtoes 12.0132
lfemur -23.4412 -0.0309849 -22.0337
ltibia 66.4446
lfoot -4.32319 2.10238
ltoes -4.51154
